#!OML:ASF E:/inclinewalkrobotboard/Project1/Captureday1/Session1/subject1.ASF
:FULLY-SPECIFIED
:DEGREES
63
root 0 0 0 1.838514161826013 -9.059627003762028 1.353013082578856
lowerback 1.0169681184444221 -1.5138422099925228 -3.2395192800125443
upperback -0.7992373158019919 -1.9296712185060911 2.3623552558222625
thorax -1.1429670667278344 -0.9353937642432505 4.233132371373393
lowerneck -29.800870236972905 -2.264680578121584 -7.475682512040601
upperneck 7.181275922062012 -1.1193247219913343 5.493453113431462
head 6.772226693463574 -0.11062323302297444 2.855245460556551
rclavicle -1.4851560697161785E-15 -1.6195688469491244E-15
rhumerus -32.55511982074056 -5.234047251847364 -80.13074240217979
rradius 29.92316577392223
rwrist 18.575027844091515
rhand -17.580217712563176 9.900623420390527
rfingers 7.125019999999944
rthumb 8.67066177181438 -19.93400055174648
lclavicle -1.2192572049448724E-15 -1.0351796570089698E-15
lhumerus -9.55109482668219 7.637282126092669 88.63903084790248
lradius 61.46847377279716
lwrist -4.872907342804897
lhand -33.61033711315411 17.802348627077954
lfingers 7.125020000000006
lthumb -6.800417874320625 47.444561049332414
rfemur -31.820748443043243 2.3204845100241975 18.67190730825666
rtibia 37.90089073391363
rfoot -6.602526975646667 -11.774861079423985
rtoes -5.099284226941011
lfemur 7.326590204550428 -2.5427722394973733 -30.34747243447095
ltibia 22.277758938356506
lfoot -17.794047501886382 -1.9594929641729517
ltoes 0.3787528709250232
64
root 0 0 0 1.933480320186428 -9.163272921584994 1.4429094588344866
lowerback 0.9480274891401164 -1.581817967578592 -3.2796153996069313
upperback -0.7132762516312103 -2.02941654367768 2.3928668637116135
thorax -1.0121241946577912 -0.9857782049590358 4.283324581633664
lowerneck -30.62457674680046 -2.333737480393787 -7.496427818522975
upperneck 6.205836759240853 -1.1647435532152344 5.6033902278587995
head 6.541538724287117 -0.08573928108712786 2.874186355056303
rclavicle -5.193099963728589E-16 -2.344587904005545E-15
rhumerus -32.529388377441414 -5.068172254672138 -80.0598844274669
rradius 29.88375872120181
rwrist 18.496576932513356
rhand -17.622286340809936 9.971409660863415
rfingers 7.125019999999943
rthumb 8.62907914329183 -19.874084415572284
lclavicle -5.526130273744879E-16 -1.3646061852046877E-15
lhumerus -9.968349235524995 7.187984936707195 88.73708904926349
lradius 61.48949971700403
lwrist -4.635303613660577
lhand -33.45648092322467 17.937403058944227
lfingers 7.125020000000005
lthumb -6.649515496067464 47.59080733908133
rfemur -33.41259663799007 3.6109596437559075 17.88430735405166
rtibia 28.903147635684995
rfoot -6.312824493565193 -12.554476804660101
rtoes -6.683553408661394
lfemur 12.945820820474994 -3.252615068553755 -30.107471478016436
ltibia 20.275526637127193
lfoot -15.821832355039462 -3.926723961757387
ltoes -4.944449787883106
65
root 0 0 0 2.0521878373964295 -9.301185106823624 1.557484416323878
lowerback 0.8465560835169255 -1.663707329488735 -3.33693408607148
upperback -0.6240885808702743 -2.1501193793418345 2.433070923057624
thorax -0.857805879000167 -1.0467734361865637 4.352607988482493
lowerneck -31.590321617190973 -2.3975762319513683 -7.529922683157912
upperneck 5.075248185023641 -1.1907880059528366 5.731102809268651
head 6.276835319029079 -0.04645557719033613 2.9019223387637316
rclavicle -2.1101032622340046E-16 -3.1441411260848826E-15
rhumerus -32.577145115694606 -4.95888772487613 -79.97017872504841
rradius 29.83244752515164
rwrist 18.554434830304356
rhand -17.628142055388864 9.945509188339226
rfingers 7.125019999999944
rthumb 8.62208905163375 -19.91516633429838
lclavicle -4.653165232068463E-16 -1.6175135390309134E-15
lhumerus -9.846714622533607 6.945924149627458 88.51075464770439
lradius 61.709859142429664
lwrist -4.572053176988723
lhand -33.43641001114579 18.015298235368345
lfingers 7.125020000000005
lthumb -6.625999626146151 47.67377370280176
rfemur -34.31021389088208 4.307002270440245 17.51121241041869
rtibia 24.650397161597688
rfoot -5.766377455047529 -12.609016314405444
rtoes -6.7070986172401295
lfemur 18.344340236886058 -3.6499384610777206 -29.18362860757609
ltibia 22.63299939790743
lfoot -11.768878596697178 -7.1801502201959515
ltoes -10.693122536670527
66
root 0 0 0 2.1730101691940806 -9.44177956372597 1.6761472964490347
lowerback 0.7573268152837112 -1.74537497627224 -3.3925276717484856
upperback -0.536212254015197 -2.270703504427578 2.480519593906556
thorax -0.7107009939343669 -1.1094805168028892 4.427245132420732
lowerneck -32.52969374211328 -2.4288357742982187 -7.54842883033561
upperneck 3.983548634976456 -1.1709101155843924 5.832134202957681
head 6.02023056238391 0.008962742026534992 2.9259939009910503
rclavicle -1.8452886435632503E-15 -4.105854468639841E-15
rhumerus -32.74786415338734 -5.082235530292721 -79.86065995777052
rradius 29.755357632022697
rwrist 18.805106379534642
rhand -17.55471634808693 9.789769491460074
rfingers 7.125019999999949
rthumb 8.691236834660167 -20.09159541690178
lclavicle -1.2271077178190845E-15 -1.861077723380681E-15
lhumerus -9.224357063672795 7.066021454543001 88.01989316188835
lradius 61.999900196463486
lwrist -4.716340627583701
lhand -33.55412784050863 17.986184123623914
lfingers 7.125020000000004
lthumb -6.734660124594449 47.64224087509403
rfemur -34.406874658857355 5.067474783688877 18.63090677430725
rtibia 21.839484477073796
rfoot -4.657815857483344 -12.034422018299667
rtoes -3.2463979318439886
lfemur 18.535251225081613 -2.3644598051069297 -25.650313824292372
ltibia 35.31948841302334
lfoot -2.9760268335893603 -12.687653457681668
ltoes -16.862779919632867
67
root 0 0 0 2.164427681563722 -9.450835130288194 1.6755365629992123
lowerback 0.7950451360689446 -1.755524234259405 -3.3697620684303256
upperback -0.510928151710004 -2.284785359749146 2.484631725022903
thorax -0.7074429145646606 -1.118113757641721 4.414985573729751
lowerneck -32.644987465680465 -2.4239701399643394 -7.5002787168350125
upperneck 3.930710408984906 -1.1484719381270336 5.769753478876538
head 6.014403660895319 0.016491547629692113 2.8982784315969337
rclavicle -2.935113100415038E-15 -4.293657163309509E-15
rhumerus -32.84923543856132 -5.306500947118321 -79.85217867961077
rradius 29.73714985546407
rwrist 18.9571762673737
rhand -17.48512265762719 9.686398928270274
rfingers 7.125019999999951
rthumb 8.758000996192262 -20.204997997352383
lclavicle -9.865813445066272E-16 -2.0072443432260457E-15
lhumerus -9.207095391564465 7.502336213440988 88.08100940533224
lradius 61.744650605355716
lwrist -4.843273901334388
lhand -33.59026705880816 17.85539684253935
lfingers 7.125020000000005
lthumb -6.76976058297627 47.50737850326248
rfemur -31.095740987759847 6.105470694142566 22.673009913828253
rtibia 19.49528953281981
rfoot -4.455316429621943 -10.88977159330727
rtoes 2.82252584231155
lfemur 10.671001641441391 -1.3225285056921892 -21.32171090951876
ltibia 43.987672325961235
lfoot 4.58940992712121 -15.39708772368188
ltoes -16.362592626492706
68
root 0 0 0 2.068406028999097 -9.393680977053464 1.6012490487755262
lowerback 0.9209545122386353 -1.7294707152230568 -3.2856148941602585
upperback -0.5145966513395089 -2.2439034759354097 2.4613571181948743
thorax -0.7895014860891673 -1.0985909092111361 4.340316128439637
lowerneck -32.335918463341876 -2.401928074449868 -7.388033486797571
upperneck 4.499351180137124 -1.1170152037241543 5.565977761554105
head 6.168559547433741 -0.005186230675225473 2.820312851228529
rclavicle -3.4478255594976406E-15 -4.105805190902891E-15
rhumerus -32.90778088295922 -5.588203133984994 -79.91361003247108
rradius 29.75987118761615
rwrist 19.064557311101584
rhand -17.41710141758012 9.60351939164116
rfingers 7.125019999999952
rthumb 8.824366503192703 -20.285107574176692
lclavicle -3.8397789978205564E-16 -2.1314044652810047E-15
lhumerus -9.794582755637704 8.162567185196039 88.67840330893127
lradius 61.03139263422109
lwrist -4.946118817664054
lhand -33.55399253058441 17.62144415179931
lfingers 7.125020000000006
lthumb -6.736721515464702 47.26923992865213
rfemur -19.686090648989083 7.180049977743271 30.400064609365433
rtibia 21.50560459810337
rfoot -4.526958001254014 -8.606235340578158
rtoes 10.258131688960336
lfemur 1.46014129577904 -0.543754409979313 -18.40740477325316
ltibia 50.24644298983751
lfoot 8.901844718297427 -15.572236567871796
ltoes -11.989320337324271
69
root 0 0 0 1.918674181339544 -9.291400010184315 1.4767481815054393
lowerback 1.0733293788500529 -1.6657447316007705 -3.1793649048998947
upperback -0.5746045218246901 -2.1469997760009045 2.4192112612515
thorax -0.9451098940662184 -1.0503647765744097 4.238533147715227
lowerneck -31.547281257118083 -2.3378211829009574 -7.2722172687374345
upperneck 5.661551392265874 -1.05177327038462 5.290342670406986
head 6.47106184976181 -0.04120554799955112 2.731067465327456
rclavicle -3.972859871229768E-15 -3.489841351273374E-15
rhumerus -32.92244977860608 -5.767153332591532 -80.03908506389577
rradius 29.835695439669358
rwrist 19.17867877447545
rhand -17.36949980820631 9.494587028085359
rfingers 7.125019999999955
rthumb 8.872352890886443 -20.369173616339893
lclavicle -6.597852241412418E-16 -1.914060239022623E-15
lhumerus -9.874463026082731 8.94776927343121 88.98870434830326
lradius 60.5437572558913
lwrist -5.191555314698054
lhand -33.64355088805721 17.36274705363455
lfingers 7.125020000000009
lthumb -6.825169687976357 46.99990598645438
rfemur -11.47189819228262 7.540136581522877 34.359208254923736
rtibia 25.34982558120602
rfoot -7.151140028574696 -6.7031133453879015
rtoes 14.019000448426524
lfemur -8.931962950998686 0.5363353192924647 -16.033624248032538
ltibia 55.61520176733229
lfoot 7.3305406580480525 -12.712914348224745
ltoes -7.921068135280961
70
root 0 0 0 1.7622165624111352 -9.149021668094319 1.3320001165142732
lowerback 1.2043735009294134 -1.5683380730054237 -3.092974627710124
upperback -0.6898953313471621 -2.0026290461455396 2.370262824892266
thorax -1.1423930367264101 -0.9781772107927085 4.145872330779765
lowerneck -30.32642925630659 -2.2279273646022215 -7.2085590528583285
upperneck 7.229266766952463 -0.9613814617996453 5.051116419760035
head 6.8595203154310305 -0.07944068130837116 2.675144580536714
rclavicle -4.453674176779818E-15 -2.2761903779935563E-15
rhumerus -32.88680947693523 -5.725250514911578 -80.20962108357367
rradius 29.963817866863288
rwrist 19.29362275836331
rhand -17.36232578635149 9.355911812897443
rfingers 7.125019999999958
rthumb 8.88207356021762 -20.469172555176584
lclavicle -1.2953297373937372E-15 -1.502402884787759E-15
lhumerus -9.538420786130555 9.412745210155112 88.92557801726772
lradius 60.472995974577024
lwrist -5.4279566265463925
lhand -33.78977651444569 17.214173726445026
lfingers 7.12502000000001
lthumb -6.967125007474743 46.841080296209974
rfemur -5.177098252587789 7.9391641037949165 36.10935611207708
rtibia 26.665583508209462
rfoot -12.455947991328769 -6.219222022329277
rtoes 13.759387565957507
lfemur -16.985095752546723 2.18642249497775 -13.951984016521482
ltibia 58.63972999502277
lfoot 2.4489778937995847 -8.85102863573993
ltoes -8.015219060728729
